<svg xmlns="http://www.w3.org/2000/svg" viewBox="641 -501 360 360">
  <path fill="#fff" d="M676-501h150a175 175 0 0 1 175 175v185H819a178 178 0 0 1-178-178v-147a35 35 0 0 1 35-35z"/>
  <path fill="#f4d41d" d="M740-170.7V-403h77v252a167.2 167.2 0 0 1-77-19.7z"/>
  <path fill="#2687c7" d="M740-413v-78h86a164.9 164.9 0 0 1 140.23 78z"/>
  <path fill="#73a937" d="M651.03-316H730v139.5A167.9 167.9 0 0 1 651.03-316z"/>
  <path fill="#d4421e" d="M827-325.72V-403h144.97A164.28 164.28 0 0 1 991-326v.28z"/>
  <path fill="#73a937" d="M651-413v-53a25 25 0 0 1 25-25h54v78z"/>
  <path fill="#d4421e" d="M651-325.72V-403h79v77.28z"/>
</svg>
